<?xml version="1.0" standalone="no"?>
<!DOCTYPE svg PUBLIC "-//W3C//DTD SVG 20010904//EN"
 "http://www.w3.org/TR/2001/REC-SVG-20010904/DTD/svg10.dtd">
<svg version="1.0" xmlns="http://www.w3.org/2000/svg"
 width="512.000000pt" height="512.000000pt" viewBox="0 0 512.000000 512.000000"
 preserveAspectRatio="xMidYMid meet">
<metadata>
Created by potrace 1.14, written by Peter Selinger 2001-2017
</metadata>
<g transform="translate(0.000000,512.000000) scale(0.100000,-0.100000)"
fill="#000000" stroke="none">
<path d="M1850 3460 l0 -90 -95 0 -95 0 0 -95 0 -95 -90 0 -90 0 0 -85 0 -85
-90 0 -90 0 0 -90 0 -90 -90 0 -90 0 0 -460 0 -460 90 0 90 0 0 -85 0 -85 90
0 90 0 0 -95 0 -95 1050 0 1050 0 0 95 0 95 90 0 90 0 0 85 0 85 -905 0 -905
0 0 90 0 90 995 0 995 0 0 95 0 95 -995 0 -995 0 0 -90 0 -90 -90 0 -90 0 0
180 0 180 1085 0 1085 0 0 185 0 185 -90 0 -90 0 0 90 0 90 90 0 90 0 0 85 0
85 -90 0 -90 0 0 95 0 95 -90 0 -90 0 0 90 0 90 -365 0 -365 0 0 -90 0 -90
-90 0 -90 0 0 90 0 90 -410 0 -410 0 0 -90z m620 -630 l0 -180 -170 0 -170 0
0 85 0 85 -100 0 -100 0 0 95 0 95 270 0 270 0 0 -180z m360 90 l0 -90 -85 0
-85 0 0 90 0 90 85 0 85 0 0 -90z m740 -90 l0 -180 -185 0 -185 0 0 85 0 85
-85 0 -85 0 0 95 0 95 270 0 270 0 0 -180z"/>
</g>
</svg>
